<svg class="icon" viewBox="0 0 1024 1024" xmlns="http://www.w3.org/2000/svg" width="200" height="200"><defs><style/></defs><path d="M254.94 64.971h598.864c14.83 0 26.836 12.006 26.836 26.836v905.357c0 14.83-12.006 26.836-26.836 26.836H167.371c-14.83 0-26.836-12.006-26.836-26.836V91.807c0-14.83 12.006-26.836 26.836-26.836h39.548"/><path d="M206.919 64.971h10.593m623.58 86.157v813.55c0 12.006-9.886 21.187-21.186 21.187H207.625c-12.006 0-21.186-9.18-21.186-21.186v-813.55c0-12.006 9.18-21.187 21.186-21.187h612.281c11.3 0 21.186 9.18 21.186 21.186z"/><path d="M721.743 58.615c-7.062-15.536-22.598-26.836-40.96-26.836H549.43C546.604 14.124 531.068 0 512 0s-34.604 13.418-37.429 31.78H341.804c-12.005 0-23.305 4.943-31.78 13.417-4.236 4.237-7.061 8.475-9.18 13.418-2.118 5.65-3.53 11.3-3.53 17.655 0 24.718 19.773 44.491 44.49 44.491H681.49c12.711 0 23.304-4.943 31.779-13.418 7.768-7.768 13.418-19.067 13.418-31.779-1.413-4.943-2.825-11.3-4.944-16.949zm-210.45-33.898c7.77 0 14.125 6.356 14.125 14.124s-6.356 14.125-14.124 14.125S497.17 46.61 497.17 38.84s6.356-14.124 14.124-14.124zm229.518 298.02h-50.847c-7.768 0-14.124-6.356-14.124-14.125s6.356-14.124 14.124-14.124h50.847c7.768 0 14.124 6.356 14.124 14.124s-6.356 14.125-14.124 14.125z"/><path d="M653.241 322.737H540.248c-7.768 0-14.124-6.356-14.124-14.125s6.356-14.124 14.124-14.124h113.7c7.768 0 14.124 6.356 14.124 14.124s-7.062 14.125-14.83 14.125z"/><path d="M500.7 322.737h-37.428c-7.769 0-14.124-6.356-14.124-14.125s6.355-14.124 14.124-14.124H500.7c7.768 0 14.124 6.356 14.124 14.124s-6.356 14.125-14.124 14.125zm96.045 63.558h-20.48c-7.768 0-14.124-6.356-14.124-14.124s6.356-14.124 14.124-14.124h20.48c7.768 0 14.124 6.356 14.124 14.124s-6.356 14.124-14.124 14.124z"/><path d="M531.068 386.295h-67.796c-7.769 0-14.124-6.356-14.124-14.124s6.355-14.124 14.124-14.124h67.796c7.768 0 14.124 6.356 14.124 14.124s-6.356 14.124-14.124 14.124z"/><path d="M271.89 336.154a68.502 68.502 0 1 0 137.004 0 68.502 68.502 0 1 0-137.004 0z"/><path d="M327.68 365.815c-2.825 0-5.65-.706-7.768-2.825l-20.48-20.48c-4.238-4.237-4.238-10.593 0-14.83 4.237-4.237 10.593-4.237 14.83 0l13.418 13.418 33.898-33.898c4.237-4.237 10.593-4.237 14.83 0 4.238 4.237 4.238 10.593 0 14.83l-41.666 41.667c-1.412 1.412-4.237 2.118-7.062 2.118z"/><path d="M740.811 552.254h-50.847c-7.768 0-14.124-6.356-14.124-14.124s6.356-14.124 14.124-14.124h50.847c7.768 0 14.124 6.355 14.124 14.124s-6.356 14.124-14.124 14.124z"/><path d="M653.241 552.254H540.248c-7.768 0-14.124-6.356-14.124-14.124s6.356-14.124 14.124-14.124h113.7c7.768 0 14.124 6.355 14.124 14.124s-7.062 14.124-14.83 14.124z"/><path d="M500.7 552.254h-37.428c-7.769 0-14.124-6.356-14.124-14.124s6.355-14.124 14.124-14.124H500.7c7.768 0 14.124 6.355 14.124 14.124s-6.356 14.124-14.124 14.124z"/><path d="M596.745 615.812h-20.48c-7.768 0-14.124-6.355-14.124-14.124s6.356-14.124 14.124-14.124h20.48c7.768 0 14.124 6.356 14.124 14.124s-6.356 14.124-14.124 14.124z"/><path d="M531.068 615.812h-67.796c-7.769 0-14.124-6.355-14.124-14.124s6.355-14.124 14.124-14.124h67.796c7.768 0 14.124 6.356 14.124 14.124s-6.356 14.124-14.124 14.124z"/><path d="M270.477 564.966a69.208 69.208 0 1 0 138.417 0 69.208 69.208 0 1 0-138.417 0z"/><path d="M327.68 595.332c-2.825 0-5.65-1.412-7.768-2.824l-20.48-20.48c-4.238-4.238-4.238-10.594 0-14.83 4.237-4.238 10.593-4.238 14.83 0l13.418 13.417 33.898-33.898c4.237-4.237 10.593-4.237 14.83 0 4.238 4.237 4.238 10.593 0 14.83l-41.666 41.667c-1.412 1.412-4.237 2.118-7.062 2.118z"/><path d="M653.241 781.771H540.248c-7.768 0-14.124-6.356-14.124-14.124s6.356-14.124 14.124-14.124h113.7c7.768 0 14.124 6.356 14.124 14.124s-7.062 14.124-14.83 14.124z"/><path d="M500.7 781.771h-37.428c-7.769 0-14.124-6.356-14.124-14.124s6.355-14.124 14.124-14.124H500.7c7.768 0 14.124 6.356 14.124 14.124s-6.356 14.124-14.124 14.124z"/><path d="M596.745 845.33h-20.48c-7.768 0-14.124-6.356-14.124-14.124s6.356-14.125 14.124-14.125h20.48c7.768 0 14.124 6.356 14.124 14.125s-6.356 14.124-14.124 14.124z"/><path d="M531.068 845.33h-67.796c-7.769 0-14.124-6.356-14.124-14.124s6.355-14.125 14.124-14.125h67.796c7.768 0 14.124 6.356 14.124 14.125s-6.356 14.124-14.124 14.124z"/><path d="M271.183 795.189a69.208 69.208 0 1 0 138.417 0 69.208 69.208 0 1 0-138.417 0z"/><path d="M327.68 824.85c-2.825 0-5.65-1.413-7.768-2.825l-20.48-20.48c-4.238-4.237-4.238-10.593 0-14.83 4.237-4.238 10.593-4.238 14.83 0l13.418 13.417 33.898-33.898c4.237-4.237 10.593-4.237 14.83 0 4.238 4.238 4.238 10.594 0 14.83l-41.666 41.667c-1.412 1.412-4.237 2.119-7.062 2.119z"/></svg>